<?xml version="1.0" encoding="UTF-8" standalone="no"?>
<!-- Created with Inkscape (http://www.inkscape.org/) -->

<svg
   xmlns:dc="http://purl.org/dc/elements/1.1/"
   xmlns:cc="http://creativecommons.org/ns#"
   xmlns:rdf="http://www.w3.org/1999/02/22-rdf-syntax-ns#"
   xmlns:svg="http://www.w3.org/2000/svg"
   xmlns="http://www.w3.org/2000/svg"
   xmlns:sodipodi="http://sodipodi.sourceforge.net/DTD/sodipodi-0.dtd"
   xmlns:inkscape="http://www.inkscape.org/namespaces/inkscape"
   width="1024"
   height="500"
   viewBox="0 0 270.93333 132.29167"
   version="1.1"
   id="svg8"
   inkscape:version="0.92.2 2405546, 2018-03-11"
   sodipodi:docname="feature-graphic.svg"
   inkscape:export-filename="../app/src/main/play/en-US/listing/featureGraphic/feature-graphic.png"
   inkscape:export-xdpi="96"
   inkscape:export-ydpi="96">
  <defs
     id="defs2" />
  <sodipodi:namedview
     id="base"
     pagecolor="#ffffff"
     bordercolor="#000000"
     borderopacity="1"
     inkscape:pageopacity="0.0"
     inkscape:pageshadow="2"
     inkscape:zoom="0.62493324"
     inkscape:cx="475.1951"
     inkscape:cy="288.63643"
     inkscape:document-units="mm"
     inkscape:current-layer="layer1"
     showgrid="false"
     units="px"
     inkscape:window-width="1600"
     inkscape:window-height="835"
     inkscape:window-x="0"
     inkscape:window-y="0"
     inkscape:window-maximized="1"
     borderlayer="true"
     inkscape:showpageshadow="false" />
  <metadata
     id="metadata5">
    <rdf:RDF>
      <cc:Work
         rdf:about="">
        <dc:format>image/svg+xml</dc:format>
        <dc:type
           rdf:resource="http://purl.org/dc/dcmitype/StillImage" />
        <dc:title />
      </cc:Work>
    </rdf:RDF>
  </metadata>
  <g
     inkscape:label="Ebene 1"
     inkscape:groupmode="layer"
     id="layer1"
     transform="translate(0,-164.70832)">
    <path
       style="fill:#42a5f5;fill-opacity:1;stroke:none;stroke-width:0.26458332px;stroke-linecap:butt;stroke-linejoin:miter;stroke-opacity:1"
       d="M 241.57724,93.688693 153.83631,322.70237 129.26786,237.27975 Z"
       id="path4549"
       inkscape:connector-curvature="0"
       sodipodi:nodetypes="cccc" />
    <path
       style="fill:#90caf9;fill-opacity:1;stroke:none;stroke-width:0.26458332px;stroke-linecap:butt;stroke-linejoin:miter;stroke-opacity:1"
       d="m 129.26786,237.27975 v 0 l 77.66392,-84.70466 -101.47643,-10.54534 z"
       id="path4547"
       inkscape:connector-curvature="0"
       sodipodi:nodetypes="ccccc" />
    <path
       style="fill:#64b5f6;fill-opacity:1;stroke:none;stroke-width:0.26458332px;stroke-linecap:butt;stroke-linejoin:miter;stroke-opacity:1"
       d="m 111.88095,149.96725 v 0 L 179.16071,374.10712 67.657738,209.68749 Z"
       id="path4545"
       inkscape:connector-curvature="0"
       sodipodi:nodetypes="ccccc" />
    <path
       style="fill:#0277bd;fill-opacity:1;stroke:none;stroke-width:0.26458332px;stroke-linecap:butt;stroke-linejoin:miter;stroke-opacity:1"
       d="M -5.2916667,329.12796 -5.6696427,217.24701 127.37797,308.71725 Z"
       id="path4537"
       inkscape:connector-curvature="0"
       sodipodi:nodetypes="cccc" />
    <path
       style="fill:#90caf9;fill-opacity:1;stroke:none;stroke-width:0.26458332px;stroke-linecap:butt;stroke-linejoin:miter;stroke-opacity:1"
       d="m 71.059523,210.44344 -3.401785,-0.75595 -79.741849,5.15409 173.172371,131.21195 z"
       id="path4539"
       inkscape:connector-curvature="0"
       sodipodi:nodetypes="ccccc" />
    <path
       style="fill:#2196f3;fill-opacity:1;stroke:none;stroke-width:0.26458332px;stroke-linecap:butt;stroke-linejoin:miter;stroke-opacity:1"
       d="m -5.6696427,217.24701 v 0 L 71.059523,210.44344 110.36905,157.90475 -14.363095,139.00594 Z"
       id="path4541"
       inkscape:connector-curvature="0"
       sodipodi:nodetypes="cccccc" />
    <path
       style="fill:#2196f3;fill-opacity:1;stroke:none;stroke-width:0.26458332px;stroke-linecap:butt;stroke-linejoin:miter;stroke-opacity:1"
       d="m 293.68749,172.26785 -76.35118,94.87201 58.5863,58.9643 z"
       id="path4553"
       inkscape:connector-curvature="0"
       sodipodi:nodetypes="cccc" />
    <path
       style="fill:#64b5f6;fill-opacity:1;stroke:none;stroke-width:0.26458332px;stroke-linecap:butt;stroke-linejoin:miter;stroke-opacity:1"
       d="M 184.64136,236.90177 378.4505,95.09124 217.33631,267.13986 Z"
       id="path4555"
       inkscape:connector-curvature="0"
       sodipodi:nodetypes="cccc" />
    <path
       style="fill:#1976d2;fill-opacity:1;stroke:none;stroke-width:0.26458332px;stroke-linecap:butt;stroke-linejoin:miter;stroke-opacity:1"
       d="m 216.58035,147.69939 77.48513,10.58333 -109.42412,78.61905 z"
       id="path4557"
       inkscape:connector-curvature="0"
       sodipodi:nodetypes="cccc" />
    <path
       id="path4603"
       d="m 131.14882,195.24411 c -6.94441,0 -12.5,5.55559 -12.5,12.5 v 9.72225 a 4.1666667,4.1666667 0 0 0 4.16667,4.16667 h 4.16666 V 210.5219 h -5.55553 v -2.77779 a 9.722222,9.722222 0 0 1 9.7222,-9.72221 9.722222,9.722222 0 0 1 9.72226,9.72221 v 2.77779 h -5.55559 v 11.11113 h 4.16666 a 4.1666667,4.1666667 0 0 0 4.16667,-4.16667 v -9.72225 c 0,-6.94441 -5.59722,-12.5 -12.5,-12.5 z"
       inkscape:connector-curvature="0"
       style="opacity:0.5;fill:#ffffff;fill-opacity:1;stroke:none;stroke-width:1.38888884" />
    <path
       id="path4614"
       d="m 131.1488,253.95301 a 3.9473708,3.9473708 0 0 1 3.94736,3.94737 v 7.89475 a 3.9473708,3.9473708 0 0 1 -3.94736,3.94736 3.9473708,3.9473708 0 0 1 -3.94737,-3.94736 v -7.89475 a 3.9473708,3.9473708 0 0 1 3.94737,-3.94737 m 9.21056,11.84212 c 0,4.64474 -3.43425,8.47365 -7.89474,9.11841 v 4.03947 h -2.6316 v -4.03947 c -4.46054,-0.64476 -7.89474,-4.47367 -7.89474,-9.11841 h 2.6316 a 6.5789516,6.5789516 0 0 0 6.57892,6.57891 6.5789516,6.5789516 0 0 0 6.57896,-6.57891 z"
       inkscape:connector-curvature="0"
       style="opacity:0.5;fill:#ffffff;fill-opacity:1;stroke:none;stroke-width:1.31579018" />
    <path
       id="path4625"
       d="m 211.96825,213.93341 a 3.5025768,3.5025768 0 0 1 3.50256,3.50257 c 0,1.8959 -1.57454,3.50263 -3.50256,3.50263 -1.89591,0 -3.50257,-1.60673 -3.50257,-3.50263 a 3.5025768,3.5025768 0 0 1 3.50257,-3.50257 m -3.50257,-17.99487 a 25.000044,25.000044 0 0 1 25,25.00007 h -4.54692 a 20.45312,20.45312 0 0 0 -20.45308,-20.45315 v -4.54692 m 0,9.09384 a 15.906197,15.906197 0 0 1 15.90617,15.90623 h -4.54692 A 11.359274,11.359274 0 0 0 208.46568,209.5793 Z"
       inkscape:connector-curvature="0"
       style="opacity:0.5;fill:#ffffff;fill-opacity:1;stroke:none;stroke-width:1.60668647" />
    <path
       id="path4655"
       d="m 163.79069,220.93857 h 20.58824 v -2.94119 h -20.58824 m 20.58824,-13.23528 h -5.88239 v -8.82353 h -8.82352 v 8.82353 h -5.88233 l 10.29409,10.29408 z"
       inkscape:connector-curvature="0"
       style="opacity:0.5;fill:#ffffff;fill-opacity:1;stroke:none;stroke-width:1.47058702" />
    <path
       style="fill:#1565c0;fill-opacity:1;stroke:none;stroke-width:0.26458332px;stroke-linecap:butt;stroke-linejoin:miter;stroke-opacity:0.60962572"
       d="m 184.64136,236.90177 87.50149,77.8631 -118.30654,7.9375 z"
       id="path4551"
       inkscape:connector-curvature="0"
       sodipodi:nodetypes="cccc" />
    <path
       id="path4636"
       d="m 227.91014,264.36965 v -4.8611 a 1.3888889,1.3888889 0 0 0 -1.38887,-1.38887 H 209.8546 a 1.3888889,1.3888889 0 0 0 -1.38892,1.38887 v 13.88893 a 1.3888889,1.3888889 0 0 0 1.38892,1.38887 h 16.66667 a 1.3888889,1.3888889 0 0 0 1.38887,-1.38887 v -4.86116 l 5.55554,5.55559 v -15.27779 z"
       inkscape:connector-curvature="0"
       style="opacity:0.5;fill:#ffffff;fill-opacity:1;stroke:none;stroke-width:1.38888884" />
    <path
       id="path4666"
       d="m 174.08479,263.04394 a 3.4090929,3.4090929 0 0 0 -3.40909,3.40909 3.4090929,3.4090929 0 0 0 3.40909,3.40909 3.4090929,3.4090929 0 0 0 3.40909,-3.40909 3.4090929,3.4090929 0 0 0 -3.40909,-3.40909 m 0,9.09093 a 5.6818216,5.6818216 0 0 1 -5.68179,-5.68184 5.6818216,5.6818216 0 0 1 5.68179,-5.68184 5.6818216,5.6818216 0 0 1 5.68183,5.68184 5.6818216,5.6818216 0 0 1 -5.68183,5.68184 m 0,-14.20459 c -5.68179,0 -10.53407,3.53411 -12.49998,8.52275 1.96591,4.98863 6.81819,8.52271 12.49998,8.52271 5.68183,0 10.53411,-3.53408 12.50002,-8.52271 -1.96591,-4.98864 -6.81819,-8.52275 -12.50002,-8.52275 z"
       inkscape:connector-curvature="0"
       style="opacity:0.5;fill:#ffffff;fill-opacity:1;stroke:none;stroke-width:1.13636422;stroke-opacity:1" />
    <g
       transform="matrix(10.48853,0,0,10.48853,9.606285,-2891.1165)"
       id="layer1-3"
       inkscape:label="Ebene 1">
      <path
         sodipodi:nodetypes="ccsccscccsccscccsccsccccccccccccccccccccccccccccc"
         inkscape:connector-curvature="0"
         id="path845"
         d="m 4.3909501,292.40513 v 0.28377 c 1.0037008,0.0216 1.6560447,0.3661 2.2523926,0.96964 0.5963478,0.60354 0.9467125,1.47696 0.9641258,2.5345 h 0.2782303 c 0.00673,-1.19521 -0.4584817,-2.15822 -1.0382469,-2.73639 -0.5797652,-0.57816 -1.3486655,-1.05093 -2.4565018,-1.05152 z m 0,0.82805 v 0.29924 c 0.7443971,0.0312 1.1668558,0.18401 1.6809974,0.70029 0.5141415,0.51628 0.7305748,1.18454 0.7450816,1.96033 h 0.2948245 c -0.00762,-1.06881 -0.4691861,-1.81182 -0.8291591,-2.17052 -0.3599732,-0.35872 -0.8621337,-0.78563 -1.8917444,-0.78934 z m -5.665e-4,0.87009 5.665e-4,0.27491 c 0.3438797,0.006 0.7199551,0.1209 1.0476503,0.48898 0.3276951,0.36807 0.4289716,0.88778 0.4419601,1.32588 h 0.282102 c -0.00135,-0.57972 -0.2415301,-1.20375 -0.5332283,-1.51395 -0.2916983,-0.31021 -0.6385502,-0.57378 -1.2390371,-0.57582 z m 0.024339,1.16492 c -0.3517826,1.2e-4 -0.6368407,0.28543 -0.636666,0.63722 1.22e-4,0.23202 0.1264212,0.44563 0.3296724,0.55757 l -2.6086157,5.39256 0.4463853,0.29041 0.5260374,-1.08194 4.6640899,1.33914 0.071908,0.13941 0.496721,-0.21739 -3.0267779,-5.84062 c 0.2273717,-0.10308 0.3735565,-0.3295 0.3739235,-0.57914 1.749e-4,-0.35179 -0.2848831,-0.6371 -0.6366657,-0.63722 z m -0.022127,1.80822 0.4574483,0.88834 -1.1306216,0.50944 z m 0.5481634,1.06479 0.7876737,1.52889 -2.1401047,-0.9138 z m -1.4486778,0.80427 2.2402234,0.95196 -3.1020179,0.83801 z m 2.438262,1.11679 1.0758604,2.08978 -4.2741251,-1.22466 z"
         style="opacity:1;fill:#ffffff;fill-opacity:1;stroke:none;stroke-width:0.28320846;stroke-opacity:1" />
    </g>
  </g>
</svg>
