<?xml version="1.0" encoding="UTF-8" standalone="no"?>
<!-- Created with Inkscape (http://www.inkscape.org/) -->

<svg
   xmlns:dc="http://purl.org/dc/elements/1.1/"
   xmlns:cc="http://creativecommons.org/ns#"
   xmlns:rdf="http://www.w3.org/1999/02/22-rdf-syntax-ns#"
   xmlns:svg="http://www.w3.org/2000/svg"
   xmlns="http://www.w3.org/2000/svg"
   xmlns:sodipodi="http://sodipodi.sourceforge.net/DTD/sodipodi-0.dtd"
   xmlns:inkscape="http://www.inkscape.org/namespaces/inkscape"
   width="48"
   height="48"
   viewBox="0 0 12.7 12.7"
   version="1.1"
   id="svg8"
   inkscape:version="0.92.2 2405546, 2018-03-11"
   sodipodi:docname="ic_launcher_foreground.svg">
  <defs
     id="defs2" />
  <sodipodi:namedview
     id="base"
     pagecolor="#ffffff"
     bordercolor="#666666"
     borderopacity="1.0"
     inkscape:pageopacity="0.0"
     inkscape:pageshadow="2"
     inkscape:zoom="11.313709"
     inkscape:cx="23.22737"
     inkscape:cy="21.198035"
     inkscape:document-units="mm"
     inkscape:current-layer="layer1"
     showgrid="false"
     units="px"
     inkscape:window-width="1600"
     inkscape:window-height="835"
     inkscape:window-x="0"
     inkscape:window-y="0"
     inkscape:window-maximized="1"
     borderlayer="true"
     inkscape:showpageshadow="false"
     inkscape:measure-start="22.5502,25.5372"
     inkscape:measure-end="22.0529,26.5828" />
  <metadata
     id="metadata5">
    <rdf:RDF>
      <cc:Work
         rdf:about="">
        <dc:format>image/svg+xml</dc:format>
        <dc:type
           rdf:resource="http://purl.org/dc/dcmitype/StillImage" />
        <dc:title></dc:title>
      </cc:Work>
    </rdf:RDF>
  </metadata>
  <g
     inkscape:label="Ebene 1"
     inkscape:groupmode="layer"
     id="layer1"
     transform="translate(0,-284.29998)">
    <circle
       style="opacity:1;fill:#008ab8;fill-opacity:1;stroke:none;stroke-width:0.00865707;stroke-miterlimit:4;stroke-dasharray:none;stroke-opacity:1"
       id="path905"
       cx="6.2915349"
       cy="290.91675"
       r="5.4972386" />
    <path
       style="opacity:1;fill:#ffffff;fill-opacity:1;stroke:none;stroke-width:0.99999994;stroke-opacity:1"
       d="m 21.751953,8.4707031 v 1.0019531 c 3.544035,0.076347 5.84744,1.2927418 7.953125,3.4238278 2.105685,2.131087 3.342811,5.215084 3.404297,8.949219 h 0.982422 C 34.11557,17.625445 32.472913,14.225068 30.425781,12.183594 28.378649,10.14212 25.663687,8.4727819 21.751953,8.4707031 Z m 0,2.9238279 v 1.056641 c 2.628442,0.110362 4.12013,0.649714 5.935547,2.472656 1.815417,1.822942 2.579636,4.182587 2.630859,6.921875 h 1.041016 c -0.02691,-3.773934 -1.656681,-6.397467 -2.927734,-7.664062 -1.271054,-1.266596 -3.044166,-2.773995 -6.679688,-2.78711 z m -0.002,3.072266 0.002,0.970703 c 1.214228,0.02268 2.542138,0.426896 3.699219,1.726562 1.157081,1.299667 1.514685,3.134718 1.560547,4.681641 h 0.996093 C 28.003013,19.798749 27.154977,17.595307 26.125,16.5 25.095023,15.404693 23.8703,14.474016 21.75,14.466797 Z m 0.08594,4.113281 c -1.242133,4.62e-4 -2.248664,1.007867 -2.248047,2.25 4.31e-4,0.819298 0.446389,1.573535 1.164062,1.96875 l -9.210937,19.041016 1.576172,1.02539 1.857421,-3.820312 16.46875,4.728516 0.253907,0.492187 1.753906,-0.767578 L 22.763672,22.875 c 0.802842,-0.363971 1.319016,-1.16343 1.320312,-2.044922 6.17e-4,-1.242133 -1.005913,-2.249537 -2.248046,-2.25 z m -0.07813,6.384766 1.615235,3.136718 -3.992188,1.798829 z m 1.935547,3.759765 2.78125,5.398438 -7.55664,-3.226563 z m -5.115234,2.839844 7.910156,3.361328 -10.953125,2.958985 z M 27.1875,35.507812 30.986328,42.886719 15.894531,38.5625 Z"
       id="path845"
       transform="matrix(0.26458333,0,0,0.26458333,0,284.29998)"
       inkscape:connector-curvature="0"
       sodipodi:nodetypes="ccsccscccsccscccsccsccccccccccccccccccccccccccccc" />
  </g>
</svg>
